[Header]
FileType HTR
DataType HTRS
FileVersion 1
NumSegments 64
NumFrames 3
DataFrameRate 24
EulerRotationOrder ZYX
CalibrationUnits mm
RotationUnits Degrees
GlobalAxisofGravity Y
BoneLengthAxis Y
ScaleFactor 1.0
[SegmentNames&Hierarchy]
Hips	GLOBAL
Spine	Hips
Spine1	Spine
Spine2	Spine1
Neck	Spine2
Head	Neck
LeftEye	Head
RightEye	Head
LeftShoulder	Spine2
LeftArm	LeftShoulder
LeftForeArm	LeftArm
LeftHand	LeftForeArm
LeftHandThumb1	LeftHand
LeftHandThumb2	LeftHandThumb1
LeftHandThumb3	LeftHandThumb2
LeftHandThumb4	LeftHandThumb3
LeftHandIndex1	LeftHand
LeftHandIndex2	LeftHandIndex1
LeftHandIndex3	LeftHandIndex2
LeftHandIndex4	LeftHandIndex3
LeftHandMiddle1	LeftHand
LeftHandMiddle2	LeftHandMiddle1
LeftHandMiddle3	LeftHandMiddle2
LeftHandMiddle4	LeftHandMiddle3
LeftHandRing1	LeftHand
LeftHandRing2	LeftHandRing1
LeftHandRing3	LeftHandRing2
LeftHandRing4	LeftHandRing3
LeftHandPinky1	LeftHand
LeftHandPinky2	LeftHandPinky1
LeftHandPinky3	LeftHandPinky2
LeftHandPinky4	LeftHandPinky3
RightShoulder	Spine2
RightArm	RightShoulder
RightForeArm	RightArm
RightHand	RightForeArm
RightHandPinky1	RightHand
RightHandPinky2	RightHandPinky1
RightHandPinky3	RightHandPinky2
RightHandPinky4	RightHandPinky3
RightHandRing1	RightHand
RightHandRing2	RightHandRing1
RightHandRing3	RightHandRing2
RightHandRing4	RightHandRing3
RightHandMiddle1	RightHand
RightHandMiddle2	RightHandMiddle1
RightHandMiddle3	RightHandMiddle2
RightHandMiddle4	RightHandMiddle3
RightHandIndex1	RightHand
RightHandIndex2	RightHandIndex1
RightHandIndex3	RightHandIndex2
RightHandIndex4	RightHandIndex3
RightHandThumb1	RightHand
RightHandThumb2	RightHandThumb1
RightHandThumb3	RightHandThumb2
RightHandThumb4	RightHandThumb3
LeftUpLeg	Hips
LeftLeg	LeftUpLeg
LeftFoot	LeftLeg
LeftToeBase	LeftFoot
RightUpLeg	Hips
RightLeg	RightUpLeg
RightFoot	RightLeg
RightToeBase	RightFoot
[BasePosition]
Hips	0	0	0	0	0	0	1
Spine	0	0	0	0	0	0	1
Spine1	0	0	0	0	0	0	1
Spine2	0	0	0	0	0	0	1
Neck	0	0	0	0	0	0	1
Head	0	0	0	0	0	0	1
LeftEye	0	0	0	0	0	0	1
RightEye	0	0	0	0	0	0	1
LeftShoulder	0	0	0	0	0	0	1
LeftArm	0	0	0	0	0	0	1
LeftForeArm	0	0	0	0	0	0	1
LeftHand	0	0	0	0	0	0	1
LeftHandThumb1	0	0	0	0	0	0	1
LeftHandThumb2	0	0	0	0	0	0	1
LeftHandThumb3	0	0	0	0	0	0	1
LeftHandThumb4	0	0	0	0	0	0	1
LeftHandIndex1	0	0	0	0	0	0	1
LeftHandIndex2	0	0	0	0	0	0	1
LeftHandIndex3	0	0	0	0	0	0	1
LeftHandIndex4	0	0	0	0	0	0	1
LeftHandMiddle1	0	0	0	0	0	0	1
LeftHandMiddle2	0	0	0	0	0	0	1
LeftHandMiddle3	0	0	0	0	0	0	1
LeftHandMiddle4	0	0	0	0	0	0	1
LeftHandRing1	0	0	0	0	0	0	1
LeftHandRing2	0	0	0	0	0	0	1
LeftHandRing3	0	0	0	0	0	0	1
LeftHandRing4	0	0	0	0	0	0	1
LeftHandPinky1	0	0	0	0	0	0	1
LeftHandPinky2	0	0	0	0	0	0	1
LeftHandPinky3	0	0	0	0	0	0	1
LeftHandPinky4	0	0	0	0	0	0	1
RightShoulder	0	0	0	0	0	0	1
RightArm	0	0	0	0	0	0	1
RightForeArm	0	0	0	0	0	0	1
RightHand	0	0	0	0	0	0	1
RightHandPinky1	0	0	0	0	0	0	1
RightHandPinky2	0	0	0	0	0	0	1
RightHandPinky3	0	0	0	0	0	0	1
RightHandPinky4	0	0	0	0	0	0	1
RightHandRing1	0	0	0	0	0	0	1
RightHandRing2	0	0	0	0	0	0	1
RightHandRing3	0	0	0	0	0	0	1
RightHandRing4	0	0	0	0	0	0	1
RightHandMiddle1	0	0	0	0	0	0	1
RightHandMiddle2	0	0	0	0	0	0	1
RightHandMiddle3	0	0	0	0	0	0	1
RightHandMiddle4	0	0	0	0	0	0	1
RightHandIndex1	0	0	0	0	0	0	1
RightHandIndex2	0	0	0	0	0	0	1
RightHandIndex3	0	0	0	0	0	0	1
RightHandIndex4	0	0	0	0	0	0	1
RightHandThumb1	0	0	0	0	0	0	1
RightHandThumb2	0	0	0	0	0	0	1
RightHandThumb3	0	0	0	0	0	0	1
RightHandThumb4	0	0	0	0	0	0	1
LeftUpLeg	0	0	0	0	0	0	1
LeftLeg	0	0	0	0	0	0	1
LeftFoot	0	0	0	0	0	0	1
LeftToeBase	0	0	0	0	0	0	1
RightUpLeg	0	0	0	0	0	0	1
RightLeg	0	0	0	0	0	0	1
RightFoot	0	0	0	0	0	0	1
RightToeBase	0	0	0	0	0	0	1
[Hips]
6	354.1450806	962.3468628	21.23058701	-2.244161129	60.36548996	-11.14405251	1.0
7	423.6308289	941.5118408	21.53938484	0.3341707587	60.31648254	-7.686300278	1.0
8	508.9191895	938.8012695	16.49795151	2.031136513	60.74472427	-4.737958908	1.0
[Spine]
6	0	101.8159943	1.315000057	5.556622028	-1.323945165	2.933709383	1.0
7	0	101.8159943	1.315000057	5.907461643	-1.145430326	0.4137060344	1.0
8	0	101.8159943	1.315000057	5.725392342	-1.855650783	-0.4942291081	1.0
[Spine1]
6	0	100.8349991	-10.00800037	3.794968605	-3.175497293	1.145578623	1.0
7	0	100.8349991	-10.00800037	4.119821072	-3.065815449	0.4729484618	1.0
8	0	100.8349991	-10.00800037	4.108165264	-3.18167901	-0.01136490609	1.0
[Spine2]
6	0	91	-13.73399925	3.810997009	-3.152505636	1.141640663	1.0
7	0	91	-13.73399925	4.114265919	-3.074164629	0.4614210129	1.0
8	0	91	-13.73399925	4.103663921	-3.189402819	-0.03026598506	1.0
[Neck]
6	0	166.7169952	-25.16200066	3.7851367	-6.18159771	-1.50218904	1.0
7	0	166.7169952	-25.16200066	3.874560595	-6.20915699	-1.287571788	1.0
8	0	166.7169952	-25.16200066	4.117092609	-6.12691164	-1.2617836	1.0
[Head]
6	0	96.17900085	16.84999847	-15.89743614	-34.65509415	15.11767292	1.0
7	0	96.17900085	16.84999847	-16.13702202	-34.72444153	16.22482491	1.0
8	0	96.17900085	16.84999847	-14.42903996	-34.89518356	16.08832741	1.0
[LeftEye]
6	30.6760006	64.09500122	92.83599854	0	0	0	1.0
7	30.6760006	64.09500122	92.83599854	0	0	0	1.0
8	30.6760006	64.09500122	92.83599854	0	0	0	1.0
[RightEye]
6	-30.6760006	64.09500122	92.83499908	0	0	0	1.0
7	-30.6760006	64.09500122	92.83499908	0	0	0	1.0
8	-30.6760006	64.09500122	92.83499908	0	0	0	1.0
[LeftShoulder]
6	45.70400238	109.4599991	-26.28000069	2.385473251	-4.070764542	-9.756962776	1.0
7	45.70400238	109.4599991	-26.28000069	2.361499071	-3.387481928	-9.647797585	1.0
8	45.70400238	109.4599991	-26.28000069	2.279670238	-2.982583761	-9.7758255	1.0
[LeftArm]
6	105.923996	-5.24600029	-22.32099915	24.82242203	-2.84814024	-58.5057373	1.0
7	105.923996	-5.24600029	-22.32099915	22.76703644	-2.332664013	-61.50967026	1.0
8	105.923996	-5.24600029	-22.32099915	20.84477043	-2.161376238	-64.0747757	1.0
[LeftForeArm]
6	278.414978	-0.0009999999311	0	-4.706330401e-06	-20.44892883	-0.0002124715975	1.0
7	278.414978	-0.0009999999311	0	-1.788935833e-06	-15.35362053	-0.0001954373583	1.0
8	278.414978	-0.0009999999311	0	-1.64255755e-06	-10.71504211	-0.000209732345	1.0
[LeftHand]
6	283.2879944	0	0	-2.918058395	-3.293993711	2.859687567	1.0
7	283.2879944	0	0	-1.91373086	-2.144989729	2.775033951	1.0
8	283.2879944	0	0	-1.571314812	-0.1583840549	3.4869349	1.0
[LeftHandThumb1]
6	24.6609993	-15.75	26.8239994	0.9464570284	1.151123047	0.2541034818	1.0
7	24.6609993	-15.75	26.8239994	0.9464570284	1.151123047	0.2541034818	1.0
8	24.6609993	-15.75	26.8239994	0.9464570284	1.151123047	0.2541034818	1.0
[LeftHandThumb2]
6	32.29800034	-18.64699936	18.64699936	16.499897	0.6726070642	16.69351196	1.0
7	32.29800034	-18.64699936	18.64699936	16.66376305	1.774626017	16.79000854	1.0
8	32.29800034	-18.64699936	18.64699936	16.72906876	2.260758162	16.9583416	1.0
[LeftHandThumb3]
6	26.52600098	-15.31499958	15.31499958	-3.772905588	-14.82028198	22.68826103	1.0
7	26.52600098	-15.31499958	15.31499958	-4.532418251	-16.62936592	23.44555283	1.0
8	26.52600098	-15.31499958	15.31499958	-4.687170982	-16.98041916	23.66683769	1.0
[LeftHandThumb4]
6	19.54599953	-11.28499985	11.28499985	0	0	0	1.0
7	19.54599953	-11.28499985	11.28499985	0	0	0	1.0
8	19.54599953	-11.28499985	11.28499985	0	0	0	1.0
[LeftHandIndex1]
6	91.09299469	-5.170999527	22.60099792	-1.521054149	0.5378593802	-27.94054794	1.0
7	91.09299469	-5.170999527	22.60099792	-1.480095744	1.568549991	-29.05263138	1.0
8	91.09299469	-5.170999527	22.60099792	-1.479137659	1.498912096	-28.9430027	1.0
[LeftHandIndex2]
6	36.76399994	0	0	-0.1291839778	1.221994281	-12.06876183	1.0
7	36.76399994	0	0	-0.1294847131	1.223390698	-12.0827179	1.0
8	36.76399994	0	0	-0.1292346716	1.22220552	-12.07088661	1.0
[LeftHandIndex3]
6	28.83100128	0	0	-0.1343930662	1.246125698	-12.31082058	1.0
7	28.83100128	0	0	-0.1347010136	1.247523069	-12.32484818	1.0
8	28.83100128	0	0	-0.1344458014	1.246338964	-12.312953	1.0
[LeftHandIndex4]
6	23.92700005	0	0	0	0	0	1.0
7	23.92700005	0	0	0	0	0	1.0
8	23.92700005	0	0	0	0	0	1.0
[LeftHandMiddle1]
6	95.33399963	0	0	-2.169700146	4.401895046	-32.99361038	1.0
7	95.33399963	0	0	-2.241723537	4.903072357	-33.78141022	1.0
8	95.33399963	0	0	-2.223438263	4.971116066	-33.58059692	1.0
[LeftHandMiddle2]
6	36.98199844	0	0	-0.3030439913	1.857270122	-18.53262138	1.0
7	36.98199844	0	0	-0.303820312	1.859558702	-18.55636024	1.0
8	36.98199844	0	0	-0.3039929271	1.860069394	-18.5616703	1.0
[LeftHandMiddle3]
6	29.50900078	0	0	-0.1091490164	1.12425828	-11.09041977	1.0
7	29.50900078	0	0	-0.1096187606	1.126612425	-11.11397934	1.0
8	29.50900078	0	0	-0.1097154319	1.127147079	-11.11928749	1.0
[LeftHandMiddle4]
6	28.3390007	0	0	0	0	0	1.0
7	28.3390007	0	0	0	0	0	1.0
8	28.3390007	0	0	0	0	0	1.0
[LeftHandRing1]
6	91.04499817	-0.4390000105	-18.65100098	-2.319424868	7.67228508	-34.66099548	1.0
7	91.04499817	-0.4390000105	-18.65100098	-2.391206741	7.919573307	-35.44007874	1.0
8	91.04499817	-0.4390000105	-18.65100098	-2.390164852	7.941175461	-35.42952728	1.0
[LeftHandRing2]
6	31.54000092	0	0	-0.4663586915	2.287153482	-23.04689217	1.0
7	31.54000092	0	0	-0.464227587	2.282154083	-22.99353409	1.0
8	31.54000092	0	0	-0.4634871781	2.280399561	-22.97478485	1.0
[LeftHandRing3]
6	29.37700081	0	0	-0.3348037899	1.949397206	-19.48881149	1.0
7	29.37700081	0	0	-0.3329215348	1.944073558	-19.43342018	1.0
8	29.37700081	0	0	-0.3322735727	1.942254186	-19.41441727	1.0
[LeftHandRing4]
6	26.47500038	0	0	0	0	0	1.0
7	26.47500038	0	0	0	0	0	1.0
8	26.47500038	0	0	0	0	0	1.0
[LeftHandPinky1]
6	80.77799988	-4.887000084	-38.06099701	-2.572721958	4.549839497	-37.31103516	1.0
7	80.77799988	-4.887000084	-38.06099701	-2.620095253	4.612021446	-37.80859375	1.0
8	80.77799988	-4.887000084	-38.06099701	-2.63026309	4.768540382	-37.91374207	1.0
[LeftHandPinky2]
6	36	0	0	-0.4887424707	2.339018822	-23.60140228	1.0
7	36	0	0	-0.4849148393	2.33023572	-23.50736237	1.0
8	36	0	0	-0.4848532677	2.330102444	-23.50591469	1.0
[LeftHandPinky3]
6	21.14200211	0	0	-0.2111142427	1.556502819	-15.4469223	1.0
7	21.14200211	0	0	-0.2084496617	1.546861291	-15.34880733	1.0
8	21.14200211	0	0	-0.2084308267	1.54677093	-15.34791851	1.0
[LeftHandPinky4]
6	19.75699997	0	0	0	0	0	1.0
7	19.75699997	0	0	0	0	0	1.0
8	19.75699997	0	0	0	0	0	1.0
[RightShoulder]
6	-45.70000076	109.4620056	-26.28000069	0.05050068721	4.253974438	9.557736397	1.0
7	-45.70000076	109.4620056	-26.28000069	0.002519179601	4.980019093	9.57985878	1.0
8	-45.70000076	109.4620056	-26.28000069	-0.03890393674	5.220626831	9.408628464	1.0
[RightArm]
6	-105.9280014	-5.248000145	-22.32099915	15.42485046	13.56904793	63.19295883	1.0
7	-105.9280014	-5.248000145	-22.32099915	14.67508698	14.64212322	64.24770355	1.0
8	-105.9280014	-5.248000145	-22.32099915	14.63410378	15.3433733	65.74424744	1.0
[RightForeArm]
6	-278.414978	0	0	-1.04319306e-05	24.94545555	4.292793164e-06	1.0
7	-278.414978	0	0	-3.216766572e-06	26.97917175	-1.087261126e-06	1.0
8	-278.414978	0	0	8.992882613e-06	29.39214134	-1.127364612e-06	1.0
[RightHand]
6	-283.2879944	0	0.0009999999311	7.111350536	9.699044228	3.209480047	1.0
7	-283.2879944	0	0.0009999999311	7.109783173	10.79333019	1.768189669	1.0
8	-283.2879944	0	0.0009999999311	8.516953468	12.31396198	0.1151763126	1.0
[RightHandPinky1]
6	-80.76699829	-4.885000229	-38.06000137	-1.773623586	-0.2519954741	30.61470413	1.0
7	-80.76699829	-4.885000229	-38.06000137	-1.75397861	-0.9388551116	30.3253746	1.0
8	-80.76699829	-4.885000229	-38.06000137	-1.722726703	-1.540591002	29.88745117	1.0
[RightHandPinky2]
6	-36	0	0.0009999999311	-0.3970567882	-1.877750993	23.89694977	1.0
7	-36	0	0.0009999999311	-0.3905663788	-1.863017917	23.69805527	1.0
8	-36	0	0.0009999999311	-0.3839814961	-1.84792757	23.49450111	1.0
[RightHandPinky3]
6	-21.14200211	0	0	-0.4507648051	-1.994587779	25.46679688	1.0
7	-21.14200211	0	0	-0.4468044341	-1.986266136	25.35266685	1.0
8	-21.14200211	0	0	-0.4402570426	-1.972411633	25.1630249	1.0
[RightHandPinky4]
6	-19.75699997	0	0	0	0	0	1.0
7	-19.75699997	0	0	0	0	0	1.0
8	-19.75699997	0	0	0	0	0	1.0
[RightHandRing1]
6	-91.03599548	-0.4390000105	-18.65100098	-2.205876827	-1.527343392	36.29657745	1.0
7	-91.03599548	-0.4390000105	-18.65100098	-2.109627008	-1.824287534	35.08327484	1.0
8	-91.03599548	-0.4390000105	-18.65100098	-1.991725445	-2.225698233	33.57587051	1.0
[RightHandRing2]
6	-31.54000092	0	0	-0.6848262548	-2.425367355	31.53058815	1.0
7	-31.54000092	0	0	-0.684265554	-2.424473763	31.51751709	1.0
8	-31.54000092	0	0	-0.685898006	-2.427148819	31.55630302	1.0
[RightHandRing3]
6	-29.37700081	0	0	-0.7616605163	-2.54628396	33.30207443	1.0
7	-29.37700081	0	0	-0.7611092329	-2.545426607	33.28971863	1.0
8	-29.37700081	0	0	-0.7629041672	-2.548171759	33.33002472	1.0
[RightHandRing4]
6	-26.47500038	0	0	0	0	0	1.0
7	-26.47500038	0	0	0	0	0	1.0
8	-26.47500038	0	0	0	0	0	1.0
[RightHandMiddle1]
6	-95.32500458	0	0	-2.416343451	-1.470962167	38.88754272	1.0
7	-95.32500458	0	0	-2.337810993	-1.369237185	37.9314537	1.0
8	-95.32500458	0	0	-2.248127222	-1.296854615	36.82769012	1.0
[RightHandMiddle2]
6	-36.98199844	0	0	-0.4473769963	-1.987492085	25.36926079	1.0
7	-36.98199844	0	0	-0.4442000091	-1.980754375	25.27725601	1.0
8	-36.98199844	0	0	-0.4418523014	-1.975764275	25.20921135	1.0
[RightHandMiddle3]
6	-29.50900078	0	0	-0.3131199479	-1.677448153	21.17019463	1.0
7	-29.50900078	0	0	-0.3104064167	-1.670437694	21.07715797	1.0
8	-29.50900078	0	0	-0.308398366	-1.665246487	21.00835991	1.0
[RightHandMiddle4]
6	-28.3390007	0	0.0009999999311	0	0	0	1.0
7	-28.3390007	0	0.0009999999311	0	0	0	1.0
8	-28.3390007	0	0.0009999999311	0	0	0	1.0
[RightHandIndex1]
6	-91.08300018	-5.167999744	22.60099792	-1.657540202	6.251121521	30.16895294	1.0
7	-91.08300018	-5.167999744	22.60099792	-1.499220848	6.386213303	28.03555679	1.0
8	-91.08300018	-5.167999744	22.60099792	-1.303292155	6.562428951	25.40065956	1.0
[RightHandIndex2]
6	-36.76399994	0	0	-0.5670746565	-2.22225976	28.62727928	1.0
7	-36.76399994	0	0	-0.5691262484	-2.226006985	28.68013	1.0
8	-36.76399994	0	0	-0.5706121922	-2.228768826	28.71896553	1.0
[RightHandIndex3]
6	-28.83100128	0	0	-0.2325632721	-1.450471878	18.21755028	1.0
7	-28.83100128	0	0	-0.2339198887	-1.454588175	18.2709198	1.0
8	-28.83100128	0	0	-0.2349058092	-1.457595706	18.31014061	1.0
[RightHandIndex4]
6	-23.92700005	0	0	0	0	0	1.0
7	-23.92700005	0	0	0	0	0	1.0
8	-23.92700005	0	0	0	0	0	1.0
[RightHandThumb1]
6	-24.64799881	-15.72700024	26.82600021	30.15343666	21.14214134	-10.25145817	1.0
7	-24.64799881	-15.72700024	26.82600021	30.15343666	21.14214134	-10.25145817	1.0
8	-24.64799881	-15.72700024	26.82600021	30.15343666	21.14214134	-10.25145817	1.0
[RightHandThumb2]
6	-32.29800034	-18.64699936	18.64699936	14.28786659	-20.07026863	2.622392893	1.0
7	-32.29800034	-18.64699936	18.64699936	13.37267876	-18.43075943	2.187052011	1.0
8	-32.29800034	-18.64699936	18.64699936	12.2543087	-18.31261444	1.653862715	1.0
[RightHandThumb3]
6	-26.52600098	-15.31399918	15.31399918	-12.02718925	-13.24443531	-10.44829941	1.0
7	-26.52600098	-15.31399918	15.31399918	-11.99367142	-13.32993126	-10.4243269	1.0
8	-26.52600098	-15.31399918	15.31399918	-11.94691563	-13.44218063	-10.39304829	1.0
[RightHandThumb4]
6	-19.54599953	-11.28499985	11.28499985	0	0	0	1.0
7	-19.54599953	-11.28499985	11.28499985	0	0	0	1.0
8	-19.54599953	-11.28499985	11.28499985	0	0	0	1.0
[LeftUpLeg]
6	82.07800293	-67.51699829	-15.99599934	-41.44929504	16.07828712	13.3236084	1.0
7	82.07800293	-67.51699829	-15.99599934	-41.74542236	15.14198112	10.18170738	1.0
8	82.07800293	-67.51699829	-15.99599934	-43.27166367	12.19418907	6.987944603	1.0
[LeftLeg]
6	0	-443.7049866	2.845999956	8.42298317	3.630708456	0.3863940239	1.0
7	0	-443.7049866	2.845999956	13.24618912	3.347650766	0.7107909918	1.0
8	0	-443.7049866	2.845999956	22.241539	-1.133536696	-0.2334278375	1.0
[LeftFoot]
6	0	-444.2789917	-29.8219986	-12.55397892	-1.147373199	-9.379149437	1.0
7	0	-444.2789917	-29.8219986	-7.728542328	-0.3649704754	-9.166856766	1.0
8	0	-444.2789917	-29.8219986	10.06831646	1.06547761	-6.300755501	1.0
[LeftToeBase]
6	0	-87.28699493	107.1060028	-7.172196865	3.860552897e-05	2.870227399e-05	1.0
7	0	-87.28699493	107.1060028	-8.755541801	3.066475756e-06	-3.008071303e-08	1.0
8	0	-87.28699493	107.1060028	-11.81801605	1.017311661e-05	6.805144039e-06	1.0
[RightUpLeg]
6	-82.07800293	-67.51699829	-15.99599934	-2.227977514	-2.080019474	-5.010757446	1.0
7	-82.07800293	-67.51699829	-15.99599934	4.044457436	-1.104236484	-9.276456833	1.0
8	-82.07800293	-67.51699829	-15.99599934	6.904251099	-10.76827812	-17.26184845	1.0
[RightLeg]
6	0	-443.7049866	2.861999989	20.07206535	9.493434906	3.552228451	1.0
7	0	-443.7049866	2.861999989	16.64351463	9.598085403	2.955518723	1.0
8	0	-443.7049866	2.861999989	20.9176178	8.863202095	4.421186447	1.0
[RightFoot]
6	0	-444.2770081	-29.83799934	-26.12486076	5.760507584	4.166934967	1.0
7	0	-444.2770081	-29.83799934	-28.93322563	6.136803627	6.093622684	1.0
8	0	-444.2770081	-29.83799934	-14.66593742	14.93773079	4.885434628	1.0
[RightToeBase]
6	0	-87.28699493	107.1060028	-6.010781288	-1.947879537e-05	-2.934949862e-06	1.0
7	0	-87.28699493	107.1060028	-6.010780334	-1.404415343e-05	-3.039213198e-06	1.0
8	0	-87.28699493	107.1060028	-18.4526062	0.1458223462	0.4440109432	1.0
[EndOfFile]
